<?xml version="1.0" standalone="no"?>
<!DOCTYPE svg PUBLIC "-//W3C//DTD SVG 20010904//EN"
 "http://www.w3.org/TR/2001/REC-SVG-20010904/DTD/svg10.dtd">
<svg version="1.0" xmlns="http://www.w3.org/2000/svg"
 width="748.000000pt" height="748.000000pt" viewBox="0 0 748.000000 748.000000"
 preserveAspectRatio="xMidYMid meet">
<metadata>
Created by potrace 1.14, written by Peter Selinger 2001-2017
</metadata>
<g transform="translate(0.000000,748.000000) scale(0.100000,-0.100000)"
fill="#000000" stroke="none">
<path d="M3615 7124 c-532 -34 -937 -148 -1430 -403 -381 -197 -603 -358 -861
-623 -378 -387 -679 -876 -832 -1348 -116 -359 -162 -646 -162 -1016 0 -269
17 -461 62 -684 104 -523 339 -1022 684 -1455 115 -143 400 -430 534 -536 442
-349 1020 -609 1555 -698 371 -62 642 -68 1020 -26 868 99 1691 553 2241 1238
408 508 650 1062 740 1692 21 153 30 617 14 771 -27 265 -93 552 -187 814 -69
194 -225 502 -345 680 l-103 154 0 71 c0 62 5 79 42 155 86 173 110 333 74
484 -42 174 -135 298 -277 369 -103 51 -160 62 -314 61 -159 -2 -261 -25 -434
-99 -97 -41 -112 -45 -174 -41 -60 3 -80 11 -192 69 -376 198 -721 304 -1140
352 -139 16 -409 26 -515 19z m423 -199 c208 -21 279 -32 427 -66 237 -54 497
-149 682 -251 88 -48 91 -51 78 -72 -8 -11 -105 -110 -217 -218 -112 -108
-351 -344 -532 -523 -181 -179 -330 -325 -332 -325 -1 0 -5 12 -9 28 -23 94
-141 220 -255 275 -98 46 -169 61 -269 55 -120 -7 -204 -51 -309 -163 -44 -47
-82 -85 -84 -85 -3 0 -17 24 -31 53 -51 102 -186 225 -307 278 -48 20 -71 24
-175 24 -120 0 -122 0 -197 -38 -60 -29 -92 -54 -152 -118 l-77 -81 -47 7
c-26 4 -90 15 -142 25 -52 10 -214 40 -360 65 -300 53 -338 54 -425 7 l-55
-30 22 31 c38 53 237 255 333 336 422 360 985 637 1500 736 316 61 649 79 933
50z m2217 -329 c120 -52 182 -187 173 -375 -6 -113 -36 -201 -98 -289 -31 -44
-1180 -1177 -1298 -1280 -15 -13 -126 -121 -247 -240 -121 -119 -528 -521
-905 -892 -377 -371 -738 -726 -803 -790 l-117 -115 100 -350 c56 -192 110
-379 120 -414 11 -35 20 -65 20 -67 0 -13 -276 -174 -298 -174 -6 0 -33 39
-60 88 -73 130 -336 619 -368 683 l-27 57 70 82 c131 153 214 315 221 432 4
64 3 69 -26 98 -38 38 -76 39 -175 6 -122 -41 -257 -123 -390 -238 -43 -37
-83 -68 -88 -68 -9 0 -184 72 -545 224 -88 38 -168 74 -178 82 -18 12 -12 20
72 111 50 54 115 122 145 152 l55 54 84 -12 c45 -7 220 -33 388 -58 l305 -45
759 768 c1164 1179 2374 2384 2446 2438 89 66 167 104 274 132 79 21 109 24
221 21 95 -3 141 -8 170 -21z m-3490 -970 c48 -20 120 -90 145 -140 37 -78 43
-76 -177 -39 -109 18 -206 36 -216 41 -16 6 -7 18 56 80 68 66 78 72 116 72
23 0 57 -6 76 -14z m-1031 -136 c131 -23 399 -70 595 -106 413 -76 724 -132
971 -174 401 -70 635 -112 640 -116 2 -3 -131 -140 -297 -306 l-301 -301 -113
41 c-63 22 -258 92 -434 155 -605 217 -821 295 -1101 400 -453 170 -467 176
-442 222 6 11 54 68 106 127 76 87 99 107 116 103 11 -3 129 -23 260 -45z
m1981 21 c46 -20 98 -69 121 -114 23 -43 55 -139 49 -145 -6 -6 -455 67 -473
77 -8 5 23 41 92 110 116 114 114 113 211 72z m-2773 -227 c-5 -51 10 -116 39
-178 l20 -43 -26 -76 c-31 -94 -31 -124 0 -212 14 -38 25 -78 25 -87 0 -9 7
-23 15 -31 8 -8 11 -17 8 -21 -3 -3 3 -9 13 -13 10 -3 21 -9 24 -13 3 -3 26
-22 52 -42 26 -19 45 -38 41 -42 -3 -3 7 -6 23 -7 17 0 23 -3 14 -6 -8 -4 19
-15 60 -25 122 -30 222 -48 232 -42 5 4 18 -3 29 -15 11 -12 27 -21 37 -22 43
-2 64 -6 70 -15 12 -16 55 -33 132 -53 64 -16 75 -17 78 -4 3 9 10 12 20 8 10
-4 41 -16 71 -28 30 -11 56 -28 58 -36 3 -9 37 -27 81 -43 229 -79 616 -234
620 -248 6 -18 -194 -214 -209 -205 -7 5 -10 4 -6 -3 4 -5 -35 -54 -86 -107
l-93 -97 -203 27 c-113 14 -227 31 -255 36 -28 5 -105 12 -171 15 -184 9 -190
7 -414 -220 -155 -158 -186 -194 -213 -252 -28 -59 -32 -79 -32 -149 0 -51 7
-99 19 -134 18 -52 18 -55 -1 -105 -28 -76 -25 -168 8 -231 14 -27 36 -59 48
-70 l22 -20 -24 -6 c-22 -6 -22 -7 -3 -15 11 -4 28 -15 37 -23 17 -16 150 -84
263 -135 33 -15 74 -35 90 -43 53 -29 59 -32 105 -53 25 -11 76 -37 114 -58
l68 -37 28 -83 c21 -64 40 -97 81 -145 71 -83 97 -107 115 -107 8 0 13 -4 9
-9 -3 -5 -1 -12 5 -16 5 -3 10 -2 10 3 0 5 25 0 56 -10 31 -10 95 -24 143 -29
47 -6 89 -16 93 -22 4 -7 24 -40 43 -74 l36 -63 -33 -1 c-30 0 -31 -1 -10 -10
32 -12 59 -44 81 -94 5 -12 16 -27 24 -34 9 -7 21 -28 27 -47 7 -19 16 -32 21
-29 5 4 9 3 9 -2 -1 -11 -30 -48 -31 -40 -1 4 -3 12 -4 17 -1 6 -3 15 -4 22
-1 9 -4 9 -12 1 -8 -8 -6 -18 6 -37 18 -27 35 -26 35 2 1 12 5 10 15 -8 19
-33 19 -49 0 -24 -24 31 -17 -3 9 -44 45 -72 260 -272 292 -272 7 0 14 -4 14
-8 0 -4 56 -9 125 -11 93 -2 133 1 157 13 94 42 131 55 139 50 5 -3 8 -2 7 3
-3 8 74 83 86 83 12 0 91 93 115 133 27 49 37 60 28 32 -7 -20 -7 -20 8 -1 18
24 20 40 3 29 -7 -4 -5 5 5 21 10 15 16 34 13 41 -3 8 0 16 7 19 9 3 9 7 0 13
-6 4 -13 42 -15 84 -3 42 -8 81 -12 87 -4 7 -2 12 4 12 6 0 8 5 5 10 -3 5 -1
10 5 10 7 0 9 7 6 16 -3 8 -2 13 3 10 5 -3 11 3 14 14 3 11 2 20 -3 20 -4 0
-3 19 2 42 14 61 3 133 -44 293 -22 77 -43 150 -47 163 -5 19 5 34 58 88 35
35 67 64 70 64 3 0 15 14 26 31 11 16 35 39 53 50 36 23 55 51 47 71 -9 22
181 201 206 195 10 -3 19 -1 19 4 0 4 6 6 13 3 8 -3 13 4 14 18 2 27 44 62 54
46 4 -6 12 8 19 31 9 35 15 42 31 38 17 -5 25 8 20 36 0 4 7 7 18 7 10 0 24 7
31 15 13 16 50 21 50 7 0 -7 82 -121 126 -175 8 -9 14 -22 14 -27 0 -6 7 -10
15 -10 12 0 125 -130 125 -144 0 -4 -8 -6 -17 -7 -11 0 -13 -3 -6 -6 7 -2 37
-39 67 -81 30 -42 63 -86 75 -96 12 -11 21 -23 21 -28 0 -9 49 -75 78 -106 7
-8 25 -30 40 -50 15 -20 36 -47 47 -58 28 -30 75 -88 94 -117 60 -91 243 -297
262 -297 14 0 32 -21 153 -182 59 -78 65 -90 56 -113 -12 -30 -13 -41 -4 -32
4 4 21 -12 39 -34 17 -22 46 -49 64 -60 76 -46 217 -30 369 43 51 24 92 41 92
38 -1 -7 -133 -106 -138 -102 -2 2 -13 -7 -25 -20 -24 -27 -92 -78 -102 -78
-4 0 -21 -11 -37 -25 -19 -16 -37 -23 -48 -20 -13 4 -20 0 -25 -14 -7 -24 -27
-41 -55 -46 -12 -2 -29 -12 -37 -22 -8 -10 -12 -12 -8 -6 4 9 1 11 -9 7 -9 -3
-14 -9 -11 -13 6 -10 -158 -93 -176 -88 -7 2 -10 2 -6 -1 31 -16 -362 -175
-454 -183 -19 -2 -40 -9 -47 -16 -18 -17 -75 -17 -69 0 2 6 12 12 21 12 10 0
22 8 27 17 12 21 -12 19 -38 -4 -10 -8 -27 -20 -38 -27 -19 -11 -19 -11 -1 -9
10 2 21 -3 23 -10 3 -9 -5 -11 -31 -7 -26 3 -35 1 -30 -7 5 -7 2 -9 -8 -5 -9
3 -42 -5 -75 -18 -242 -98 -1127 -101 -1391 -4 -31 11 -73 22 -92 24 -19 2
-37 4 -40 5 -3 1 -9 2 -13 1 -5 -1 -5 4 -2 10 4 6 16 9 26 6 32 -9 12 9 -43
38 -29 15 -79 45 -110 67 -61 41 -78 39 -30 -4 15 -13 34 -22 41 -20 9 3 11 0
6 -8 -5 -8 -4 -11 2 -7 6 4 14 0 17 -9 5 -12 1 -14 -17 -9 -17 5 -19 4 -7 -4
8 -6 23 -8 33 -5 9 3 17 1 17 -5 0 -6 6 -11 14 -11 7 0 19 -7 26 -15 9 -10 9
-15 1 -15 -6 0 -11 5 -11 10 0 6 -15 10 -32 10 -34 0 -177 43 -283 85 -143 57
-240 103 -238 112 1 6 -5 9 -15 7 -9 -3 -33 5 -52 18 -19 12 -41 23 -49 24 -8
2 -17 6 -20 11 -3 4 -23 17 -43 27 -21 11 -38 23 -38 28 0 5 -4 6 -10 3 -5 -3
-10 -2 -10 4 0 5 -10 11 -22 13 -13 2 -22 9 -21 16 2 6 -5 12 -15 13 -9 0 -28
8 -42 17 -14 9 -41 26 -60 37 -18 11 -46 31 -62 45 -52 46 -57 50 -66 50 -14
0 -43 36 -35 44 4 4 0 4 -8 1 -21 -8 -175 127 -369 323 -153 154 -357 413
-354 447 1 8 -2 13 -6 10 -14 -8 -98 129 -183 300 -230 459 -337 928 -337
1476 0 350 96 836 227 1154 56 134 193 405 206 405 1 0 1 -20 -1 -46z m5681
-101 c171 -289 297 -711 341 -1139 37 -363 4 -797 -89 -1144 -49 -183 -80
-277 -118 -360 -14 -30 -39 -89 -57 -130 -17 -41 -48 -104 -68 -140 -20 -36
-40 -73 -44 -83 -14 -33 -128 -215 -143 -227 -8 -7 -15 -19 -15 -26 0 -8 -4
-14 -10 -14 -5 0 -10 -7 -10 -15 0 -8 -4 -15 -10 -15 -5 0 -10 -5 -10 -11 0
-9 -46 -73 -77 -107 -7 -7 -29 -33 -50 -59 -58 -71 -105 -118 -114 -116 -5 2
-9 -2 -9 -9 0 -7 -12 -23 -27 -36 -16 -13 -22 -20 -14 -16 10 5 12 3 7 -5 -5
-7 -14 -10 -21 -7 -7 2 -16 -2 -19 -10 -4 -10 -2 -12 5 -8 7 4 2 -7 -11 -24
-14 -19 -28 -28 -38 -24 -9 3 -13 1 -9 -5 3 -5 0 -10 -8 -10 -22 0 -18 15 6
22 16 5 18 9 8 15 -10 7 -6 18 17 52 26 39 29 50 27 113 -2 38 -10 93 -18 122
-14 49 -14 54 4 83 10 17 23 32 27 33 5 1 9 47 8 102 -1 102 -18 164 -82 306
-79 171 -176 440 -159 436 7 -1 11 3 10 10 -2 7 4 10 12 7 8 -4 15 -10 15 -15
0 -5 4 -9 9 -9 8 0 15 30 25 113 1 9 21 36 43 60 104 108 143 202 143 344 0
128 -34 236 -103 328 -12 17 -35 47 -50 68 l-29 37 40 48 c74 89 103 181 97
303 -10 174 -74 304 -203 415 -57 49 -65 59 -39 55 5 -1 6 2 3 7 -3 5 3 15 12
23 9 8 31 31 48 50 44 49 217 213 298 284 39 33 77 68 85 77 8 9 18 15 23 12
5 -3 7 0 6 7 -2 7 2 13 9 14 6 0 15 4 20 9 5 5 3 6 -4 2 -7 -4 -13 -3 -13 1 0
10 72 80 140 137 64 53 65 54 86 58 10 2 19 11 19 19 0 18 23 49 36 49 4 0 23
-26 42 -57z m-1639 -978 c96 -280 338 -953 431 -1200 53 -143 126 -341 162
-440 35 -99 86 -238 113 -310 26 -71 54 -150 61 -174 12 -42 12 -45 -12 -65
-45 -39 -169 -108 -183 -103 -7 3 -27 25 -43 49 -16 24 -66 93 -110 153 -44
61 -141 193 -215 295 -166 228 -317 433 -655 885 -144 192 -268 361 -275 374
-12 23 0 36 326 358 249 247 341 332 347 321 4 -8 28 -72 53 -143z m579 73
c94 -48 167 -145 183 -244 6 -39 5 -40 -83 -125 -124 -121 -193 -183 -197
-178 -2 2 -63 78 -136 169 l-132 165 128 123 c124 121 128 123 163 117 19 -4
53 -16 74 -27z m58 -772 c88 -42 158 -141 174 -245 l7 -43 -112 -111 c-86 -85
-114 -108 -120 -97 -20 36 -160 392 -160 407 0 9 24 38 53 66 46 44 56 48 88
44 20 -3 52 -12 70 -21z m-3087 -672 c-138 -235 -376 -444 -400 -350 -9 37 21
83 115 176 78 78 296 238 308 226 3 -2 -8 -26 -23 -52z m3432 -1422 c-17 -16
-18 -16 -5 5 7 12 15 20 18 17 3 -2 -3 -12 -13 -22z"/>
<path d="M5635 6379 c-96 -56 -98 -148 -3 -163 55 -9 116 -45 158 -92 31 -36
90 -147 90 -170 0 -22 42 -64 64 -64 33 0 66 28 87 74 56 124 -23 304 -170
384 -52 29 -76 36 -135 39 -43 2 -79 -1 -91 -8z"/>
<path d="M1505 1650 c3 -5 8 -10 11 -10 2 0 4 5 4 10 0 6 -5 10 -11 10 -5 0
-7 -4 -4 -10z"/>
<path d="M1768 1603 c12 -2 30 -2 40 0 9 3 -1 5 -23 4 -22 0 -30 -2 -17 -4z"/>
<path d="M1941 1576 c3 -3 30 -9 60 -12 30 -3 59 -8 64 -11 6 -3 5 0 -2 7 -7
7 -38 15 -70 18 -32 2 -55 2 -52 -2z"/>
<path d="M1878 1563 c6 -2 18 -2 25 0 6 3 1 5 -13 5 -14 0 -19 -2 -12 -5z"/>
<path d="M2074 1508 c-5 -7 -3 -8 6 -3 10 6 12 4 7 -9 -4 -9 -3 -15 2 -12 5 3
12 -6 15 -20 4 -15 9 -24 12 -21 6 5 -22 77 -30 77 -3 0 -8 -5 -12 -12z"/>
<path d="M5143 1488 c-32 -8 -40 -18 -27 -31 3 -3 13 -3 21 0 12 5 12 7 1 15
-9 6 -3 8 20 5 17 -2 32 0 32 4 0 14 -15 16 -47 7z"/>
<path d="M5048 1463 c6 -2 18 -2 25 0 6 3 1 5 -13 5 -14 0 -19 -2 -12 -5z"/>
<path d="M4920 1453 c-42 -8 -46 -23 -4 -16 45 7 82 23 49 21 -11 0 -31 -3
-45 -5z"/>
<path d="M2126 1424 c-4 -9 -4 -19 -1 -22 3 -3 5 1 5 8 0 9 5 7 14 -5 8 -11
12 -24 9 -29 -4 -5 -1 -6 5 -2 9 5 7 15 -5 34 -9 15 -18 28 -19 30 -1 2 -4 -5
-8 -14z"/>
<path d="M4765 1430 l-50 -7 50 -1 c28 0 59 3 70 8 l20 9 -20 -1 c-11 -1 -42
-4 -70 -8z"/>
<path d="M1590 1390 c0 -5 7 -7 15 -4 8 4 15 8 15 10 0 2 -7 4 -15 4 -8 0 -15
-4 -15 -10z"/>
<path d="M4323 1383 c9 -2 25 -2 35 0 9 3 1 5 -18 5 -19 0 -27 -2 -17 -5z"/>
<path d="M4217 1369 c7 -7 15 -10 18 -7 3 3 -2 9 -12 12 -14 6 -15 5 -6 -5z"/>
<path d="M3641 1363 c0 -5 4 -17 9 -28 8 -18 9 -17 9 8 1 15 -3 27 -9 27 -5 0
-10 -3 -9 -7z"/>
<path d="M3838 1363 c12 -2 30 -2 40 0 9 3 -1 5 -23 4 -22 0 -30 -2 -17 -4z"/>
<path d="M3908 1363 c7 -3 16 -2 19 1 4 3 -2 6 -13 5 -11 0 -14 -3 -6 -6z"/>
<path d="M3958 1363 c7 -3 16 -2 19 1 4 3 -2 6 -13 5 -11 0 -14 -3 -6 -6z"/>
<path d="M2212 1305 c7 -16 23 -40 35 -52 13 -12 23 -26 23 -32 0 -5 16 -26
35 -45 19 -20 35 -34 35 -30 0 11 -91 124 -101 124 -5 0 -9 6 -9 13 0 7 -7 22
-15 33 -14 17 -14 17 -3 -11z"/>
<path d="M1735 1270 c-3 -5 1 -10 9 -10 9 0 16 5 16 10 0 6 -4 10 -9 10 -6 0
-13 -4 -16 -10z"/>
<path d="M5232 1249 c-13 -16 -19 -29 -13 -29 6 0 11 5 11 11 0 5 6 7 13 3 6
-4 9 -4 5 1 -4 4 -3 14 4 22 6 7 9 15 7 17 -2 2 -14 -10 -27 -25z"/>
<path d="M2181 1236 c-9 -10 -9 -16 -1 -21 16 -10 31 7 21 23 -6 10 -10 10
-20 -2z"/>
<path d="M4969 1203 c-13 -16 -12 -17 4 -4 9 7 17 15 17 17 0 8 -8 3 -21 -13z"/>
<path d="M2386 1077 c27 -29 58 -59 68 -66 11 -7 -7 17 -40 53 -32 36 -63 66
-68 66 -5 0 13 -24 40 -53z"/>
<path d="M5105 1088 l-40 -43 43 40 c39 36 47 45 39 45 -2 0 -21 -19 -42 -42z"/>
<path d="M1971 1094 c0 -11 3 -14 6 -6 3 7 2 16 -1 19 -3 4 -6 -2 -5 -13z"/>
<path d="M4794 1024 c-18 -14 -18 -15 4 -4 12 6 22 13 22 15 0 8 -5 6 -26 -11z"/>
<path d="M5044 1029 c-3 -6 -2 -15 3 -20 5 -5 9 -1 9 11 0 23 -2 24 -12 9z"/>
<path d="M4945 935 c-38 -36 -64 -65 -58 -65 6 0 16 7 23 15 7 8 17 12 23 8 5
-3 7 -1 4 4 -4 6 8 24 26 40 32 28 63 63 56 63 -2 -1 -35 -30 -74 -65z"/>
<path d="M2490 970 c13 -11 25 -20 28 -20 3 0 -3 9 -13 20 -10 11 -23 20 -28
20 -6 0 0 -9 13 -20z"/>
<path d="M4719 963 l-24 -26 33 23 c33 25 38 30 24 30 -5 0 -19 -12 -33 -27z"/>
<path d="M2530 936 c0 -2 8 -10 18 -17 15 -13 16 -12 3 4 -13 16 -21 21 -21
13z"/>
<path d="M2576 895 c3 -8 20 -23 37 -34 18 -11 44 -30 59 -43 15 -12 30 -20
32 -17 3 2 -26 28 -64 56 -38 29 -67 46 -64 38z"/>
<path d="M3651 874 c0 -11 3 -14 6 -6 3 7 2 16 -1 19 -3 4 -6 -2 -5 -13z"/>
<path d="M4845 849 c-5 -6 -23 -22 -40 -35 -16 -14 -21 -21 -10 -15 28 14 82
60 70 60 -5 0 -14 -5 -20 -10z"/>
<path d="M2961 826 c2 -2 19 -11 36 -20 28 -14 32 -14 27 -1 -3 8 -10 12 -15
9 -5 -3 -9 -1 -9 3 0 5 -10 9 -21 10 -12 1 -20 0 -18 -1z"/>
<path d="M4460 790 c-8 -5 -10 -10 -5 -10 6 0 17 5 25 10 8 5 11 10 5 10 -5 0
-17 -5 -25 -10z"/>
<path d="M2709 788 c-5 -18 -6 -38 -1 -34 7 8 12 36 6 36 -2 0 -4 -1 -5 -2z"/>
<path d="M3040 784 c0 -12 50 -37 58 -29 3 3 0 5 -7 5 -7 0 -9 5 -5 12 5 7 2
9 -8 5 -9 -3 -21 0 -27 6 -7 7 -11 7 -11 1z"/>
<path d="M4734 765 c-10 -8 -14 -14 -9 -14 6 0 19 6 29 14 11 8 15 15 10 15
-6 0 -19 -7 -30 -15z"/>
<path d="M4832 767 c-8 -10 -6 -13 9 -13 10 0 19 6 19 13 0 7 -4 13 -9 13 -5
0 -13 -6 -19 -13z"/>
<path d="M4684 736 c-10 -8 -16 -18 -11 -22 4 -4 7 -2 7 5 0 7 4 10 9 7 5 -3
11 1 15 9 7 19 5 19 -20 1z"/>
<path d="M4310 709 c-19 -11 -29 -19 -22 -19 15 0 72 28 72 35 0 8 -13 4 -50
-16z"/>
<path d="M3836 651 c-4 -7 -5 -15 -2 -18 9 -9 19 4 14 18 -4 11 -6 11 -12 0z"/>
<path d="M3651 634 c0 -11 3 -14 6 -6 3 7 2 16 -1 19 -3 4 -6 -2 -5 -13z"/>
<path d="M4165 640 c-3 -6 1 -7 9 -4 18 7 21 14 7 14 -6 0 -13 -4 -16 -10z"/>
<path d="M3640 580 c0 -5 5 -10 10 -10 6 0 10 5 10 10 0 6 -4 10 -10 10 -5 0
-10 -4 -10 -10z"/>
<path d="M3830 580 c19 -13 30 -13 30 0 0 6 -10 10 -22 10 -19 0 -20 -2 -8
-10z"/>
<path d="M6225 1840 c-3 -5 -1 -10 4 -10 6 0 11 5 11 10 0 6 -2 10 -4 10 -3 0
-8 -4 -11 -10z"/>
<path d="M6166 1737 c3 -10 9 -15 12 -12 3 3 0 11 -7 18 -10 9 -11 8 -5 -6z"/>
<path d="M6136 1723 c-6 -14 -5 -15 5 -6 7 7 10 15 7 18 -3 3 -9 -2 -12 -12z"/>
<path d="M6105 1700 c-3 -5 -1 -10 4 -10 6 0 11 5 11 10 0 6 -2 10 -4 10 -3 0
-8 -4 -11 -10z"/>
</g>
</svg>
